<?xml version="1.0" encoding="utf-8"?>
<!-- Generator: Adobe Illustrator 25.0.0, SVG Export Plug-In . SVG Version: 6.00 Build 0)  -->
<svg version="1.1" id="圖層_1" xmlns="http://www.w3.org/2000/svg" xmlns:xlink="http://www.w3.org/1999/xlink" x="0px" y="0px"
	 viewBox="0 0 512 512" style="enable-background:new 0 0 512 512;" xml:space="preserve">
<style type="text/css">
	.st0{fill:#FFFFFF;}
</style>
<path class="st0" d="M256,10.7C114.9,10.7,0,104.5,0,219.8C0,323.1,91.1,409.6,214.1,426c8.3,1.8,19.7,5.5,22.6,12.7
	c2.6,6.5,1.7,16.4,0.8,23.2l-3.5,21.9c-1,6.5-5.1,25.5,22.4,13.8c27.5-11.6,147.5-87.6,201.3-149.7c36.8-40.5,54.4-82.1,54.4-128.1
	C512,104.5,397.1,10.7,256,10.7L256,10.7z M155.8,288.4h-50.9c-7.4,0-13.4-6.1-13.4-13.5V172.4c0-7.4,6.1-13.5,13.4-13.5
	c7.4,0,13.4,6.1,13.4,13.5v88.9h37.5c7.4,0,13.4,6.1,13.4,13.5C169.2,282.2,163.2,288.4,155.8,288.4z M208.4,274.9
	c0,7.4-6,13.5-13.5,13.5c-7.4,0-13.4-6.1-13.4-13.5V172.4c0-7.4,6-13.5,13.4-13.5c7.4,0,13.4,6.1,13.4,13.5L208.4,274.9z
	 M330.9,274.9c0,5.8-3.7,10.9-9.2,12.8c-1.4,0.4-2.8,0.7-4.2,0.7c-4.5,0-8.3-1.9-10.9-5.4l-52.1-71.2v63.1c0,7.4-6,13.5-13.5,13.5
	c-7.4,0-13.4-6.1-13.4-13.5V172.4c0-5.8,3.7-10.9,9.2-12.8c1.3-0.5,2.9-0.7,4.1-0.7c4.2,0,8,2.2,10.6,5.5l52.5,71.5v-63.5
	c0-7.4,6-13.5,13.4-13.5c7.4,0,13.4,6.1,13.4,13.5V274.9z M413.1,210.1c7.4,0,13.4,6.1,13.4,13.5c0,7.4-6,13.5-13.4,13.5h-37.4v24.1
	h37.4c7.4,0,13.4,6.1,13.4,13.5c0,7.4-6,13.5-13.4,13.5h-50.9c-7.4,0-13.4-6.1-13.4-13.5V172.4c0-7.4,6-13.5,13.4-13.5h50.9
	c7.4,0,13.4,6.1,13.4,13.5c0,7.5-6,13.5-13.4,13.5h-37.4v24.1H413.1z"/>
</svg>
